<svg version="1.2" xmlns="http://www.w3.org/2000/svg" viewBox="0 0 2000 2000" width="2000" height="2000">
	<style>
		.s0 { fill: #000000 } 
	</style>
	<g id="Background">
	</g>
	<g id="Layer 1">
		<g id="&lt;Group&gt;">
		</g>
		<g id="&lt;Group&gt;">
		</g>
		<g id="&lt;Group&gt;">
		</g>
		<g id="&lt;Group&gt;">
		</g>
		<g id="&lt;Group&gt;">
		</g>
		<g id="&lt;Group&gt;">
			<g id="&lt;Group&gt;">
			</g>
			<g id="&lt;Group&gt;">
				<path id="&lt;Path&gt;" class="s0" d="m1394.72 424c0 0-13.67 89.42-110.34 102.98 96.67 13.57 110.34 102.99 110.34 102.99 0 0 13.68-89.42 110.34-102.99-96.66-13.56-110.34-102.98-110.34-102.98z"/>
				<path id="&lt;Compound Path&gt;" class="s0" d="m1696.8 812.78c-31.53-76.25-176.85-95.08-373.37-61.49-84.93-78.61-198.55-126.67-323.41-126.67-256.56 0-465.74 202.94-475.8 457.04-162.87 114.97-252.49 230.92-220.97 307.17 4.93 11.9 12.62 22.4 22.85 31.51 55.3 49.33 184.68 58.33 350.52 29.97 123.73-21.14 267.72-63.07 416.4-124.52q8.48-3.51 16.89-7.06c-21.69 13.87-43.97 27.56-66.79 41.04-102.26 60.36-203.44 109.01-296.4 144.31 73.35 46.19 160.21 72.9 253.3 72.9 256.57 0 465.75-202.93 475.8-457.03 162.88-114.97 252.5-230.92 220.98-307.17zm-827.91 130.46c0 0-6.7-43.87-54.13-50.52 47.43-6.66 54.13-50.52 54.13-50.52 0 0 6.71 43.86 54.13 50.52-47.42 6.65-54.13 50.52-54.13 50.52z"/>
			</g>
			<g id="&lt;Group&gt;">
			</g>
		</g>
	</g>
</svg>